<?xml version="1.0" standalone="no"?><!DOCTYPE svg PUBLIC "-//W3C//DTD SVG 1.1//EN" "http://www.w3.org/Graphics/SVG/1.1/DTD/svg11.dtd"><svg t="1541121739013" class="icon" style="" viewBox="0 0 1024 1024" version="1.1" xmlns="http://www.w3.org/2000/svg" p-id="536" xmlns:xlink="http://www.w3.org/1999/xlink" width="200" height="200"><defs><style type="text/css"></style></defs><path d="M512 511.970835m-511.970835 0a511.970835 511.970835 0 1 0 1023.94167 0 511.970835 511.970835 0 1 0-1023.94167 0Z" fill="#FADEB9" p-id="537"></path><path d="M502.958701 1023.883338L382.096952 856.006836 529.382626 236.182056l51.03959-69.238849 431.649103 455.623127s-57.164341 316.562119-388.367531 389.125833a504.737795 504.737795 0 0 1-120.745087 12.191171z" fill="#F7CEA6" p-id="538"></path><path d="M567.822729 232.857192c64.164056 84.813216 68.888864 199.841868 68.888863 199.841868v367.485047a17.499288 17.499288 0 0 0 5.249787 13.066135 30.040444 30.040444 0 0 1 8.749644 22.107434c0 7.174708-3.67485 22.982398-13.9411 22.982398H386.938422C380.172031 857.46511 373.347308 845.448932 373.347308 834.132726a29.16548 29.16548 0 0 1 7.29137-20.532498 20.007519 20.007519 0 0 0 6.358075-13.9411V432.69906c14.816064-149.50225 63.23076-198.325263 63.230761-198.325263 15.16605-12.249502 11.082882-18.8409 4.316491-18.8409h-4.316491a7.174708 7.174708 0 0 1-7.174709-7.174708v-10.90789a7.174708 7.174708 0 0 1 7.174709-7.174708H573.422501a7.174708 7.174708 0 0 1 7.174708 7.174708v11.141213A7.174708 7.174708 0 0 1 573.422501 215.824551h-4.783139c-5.191455 0-10.032925 4.141498-0.816633 17.032641z" fill="#FFF6ED" p-id="539"></path><path d="M388.163372 834.132726a29.16548 29.16548 0 0 1 7.29137-20.532498 20.007519 20.007519 0 0 0 6.358075-13.9411V432.69906c14.816064-149.50225 63.23076-198.325263 63.23076-198.325263 15.16605-12.249502 11.082882-18.8409 4.316491-18.8409h-4.316491a7.174708 7.174708 0 0 1-7.174708-7.174708v-10.90789a7.174708 7.174708 0 0 1 7.174708-7.174708h-14.757733A7.174708 7.174708 0 0 0 443.34446 197.450299v11.141213A7.174708 7.174708 0 0 0 450.285844 215.824551h4.316492c6.766391 0 10.849559 6.591398-4.316492 18.8409 0 0-48.473028 48.531359-63.23076 198.325264v367.193392a20.007519 20.007519 0 0 1-6.358075 13.941099A29.16548 29.16548 0 0 0 373.347308 834.132726c0 11.082882 6.883053 23.332384 13.649445 23.799031h14.816064c-6.766391-0.466648-13.649445-12.482825-13.649445-23.799031z" fill="#DFEFE8" p-id="540"></path><path d="M386.938422 858.281743h249.77317c10.266249 0 13.941099-15.749359 13.9411-22.982398H373.347308c0.408317 10.791228 6.999715 22.45742 13.591114 22.982398z" fill="#DFEFE8" p-id="541"></path><path d="M442.819482 165.659926l138.419367 0 0 24.673996-138.419367 0 0-24.673996Z" fill="#BAC7C6" p-id="542"></path><path d="M641.669724 813.13358a17.499288 17.499288 0 0 1-5.249787-13.066135v-367.485047s-4.958132-115.028653-68.888863-199.841868c-9.216292-12.832811-4.374822-17.090971 0.874964-17.032641h4.783139a7.174708 7.174708 0 0 0 7.174708-7.174708v-11.082882a7.174708 7.174708 0 0 0-7.174708-7.174708h-24.382341a7.174708 7.174708 0 0 1 7.174708 7.174708v11.141213A7.174708 7.174708 0 0 1 548.806836 215.824551h-4.783139c-5.191455 0-10.091256 4.199829-0.874964 17.032641 64.164056 84.813216 68.888864 199.841868 68.888863 199.841868v367.485047a17.499288 17.499288 0 0 0 5.249787 13.066135 30.040444 30.040444 0 0 1 8.749643 22.107434c0 7.174708-3.67485 22.982398-13.941099 22.982398h24.673996c10.266249 0 13.941099-15.749359 13.9411-22.982398a30.040444 30.040444 0 0 0-9.041299-22.224096z" fill="#DFEFE8" p-id="543"></path><path d="M387.055084 434.740644h249.656508v12.949473h-249.656508zM563.506238 225.040843c-2.4499-6.824722 1.283281-9.274623 5.191455-9.216292h4.783139a7.116377 7.116377 0 0 0 6.12475-3.67485H444.102763a7.058046 7.058046 0 0 0 6.124751 3.67485h4.316491c4.666477 0 7.933011 3.208203 4.491483 9.216292z" fill="#DFEFE8" p-id="544"></path><path d="M579.372259 753.927656h-182.575905v40.248362h159.360183l23.215722-40.248362zM597.221532 753.927656h-10.382911l-23.215722 40.248362h10.382911l23.215722-40.248362z" fill="#4A9E56" p-id="545"></path><path d="M612.212589 753.927656h-7.991341l-23.274053 40.248362h7.991341l23.274053-40.248362z" fill="#FCD42D" p-id="546"></path><path d="M624.987069 753.927656h-5.774765l-23.274053 40.248362h5.833096l23.215722-40.248362z" fill="#FCE088" p-id="547"></path><path d="M624.987069 470.789177H396.679692v46.664768a333.361435 333.361435 0 0 0 228.190715 0z" fill="#4A9E56" p-id="548"></path><path d="M396.679692 517.628938v4.083167a333.361435 333.361435 0 0 0 228.190715 0v-4.083167a333.361435 333.361435 0 0 1-228.190715 0z" fill="#FCD42D" p-id="549"></path><path d="M432.786557 484.030305h31.848704v31.848704h-31.848704zM493.217431 484.030305h31.848704v31.848704h-31.848704zM553.706636 484.030305h31.848704v31.848704h-31.848704z" fill="#FDFFFF" p-id="550"></path><path d="M577.505668 584.709541c0 1.399943 0 2.741555 0.466648 3.908175a32.315352 32.315352 0 0 0 0.933295 3.908174q-4.024836 0.408317-11.257875 1.749929l-3.791513 0.699971a52.089547 52.089547 0 0 1-2.508231 6.183082l2.624893-0.408317 10.382911-1.86659a51.914554 51.914554 0 0 0 5.366448-1.283281 27.882199 27.882199 0 0 0 1.458274 7.93301 52.497864 52.497864 0 0 0-5.424779 0.699972l-2.508231 0.466647 1.283281 6.999715 3.383196-0.583309q2.683224-0.466648 5.308117-1.166619a27.590544 27.590544 0 0 0 0.408317 3.966505 28.057192 28.057192 0 0 0 0.991626 3.908174 50.689604 50.689604 0 0 0-5.366448 0.699972l-3.383196 0.583309 1.749929 9.566278a84.46323 84.46323 0 0 0 7.174708-5.833096 26.190601 26.190601 0 0 0 3.441527 7.874679 72.038735 72.038735 0 0 0-12.366164 11.666192 34.998576 34.998576 0 0 0-5.833096-5.833096 32.315352 32.315352 0 0 0-0.349986-8.632982l-1.399943-7.641355-3.67485 0.64164a50.689604 50.689604 0 0 0-5.249787 1.22495 27.240558 27.240558 0 0 0-0.408316-4.024836 26.71558 26.71558 0 0 0-0.991627-3.849843q2.683224 0 5.366449-0.758303l3.67485-0.64164-1.283281-6.999716a50.689604 50.689604 0 0 0-5.249786 1.224951 29.16548 29.16548 0 0 0-0.408317-4.024837v-0.524978c-0.641641 1.22495-1.341612 2.391569-2.041584 3.499857a35.640216 35.640216 0 0 0-5.249786-8.341327 35.990202 35.990202 0 0 0 4.549815-9.391284 45.498149 45.498149 0 0 0 1.516605-11.199545 25.023982 25.023982 0 0 0 9.974594 1.983253 14.874395 14.874395 0 0 0-2.216577 5.833096H565.839476q5.48311-0.874964 11.666192-2.216577z m28.115523 21.87411l5.308117-0.991626q4.316491-0.758302 8.632982-1.866591a74.080319 74.080319 0 0 0 0.466648 8.166335q0.874964 7.87468 1.108288 11.316206a11.666192 11.666192 0 0 1-1.458274 9.041299 51.68123 51.68123 0 0 1-22.982398 8.049672 34.998576 34.998576 0 0 0-4.608146-9.332953 76.880205 76.880205 0 0 0 16.974309-2.333239 4.25816 4.25816 0 0 0 2.974879-1.633267 7.116377 7.116377 0 0 0 0.758303-4.841469l-0.466648-9.216292-17.149302 3.091541a73.088693 73.088693 0 0 0-8.399658 2.041583l-3.266534-18.024266q-0.641641-3.61652-1.516605-7.233039a50.397949 50.397949 0 0 0 9.682939-0.641641 15.982683 15.982683 0 0 0-0.408317 4.666477q0 2.974879 1.399943 12.016178l5.016463-0.933296-4.433153-24.499003h-1.341612q-6.474737 1.166619-12.832811 2.916548a32.315352 32.315352 0 0 0-0.466648-4.316491 36.281857 36.281857 0 0 0-1.108288-4.433153q6.591398-0.58331 13.066135-1.749928l10.091256-1.80826q6.474737-1.166619 12.832811-2.916548a34.998576 34.998576 0 0 0 0.524979 4.491484 31.323725 31.323725 0 0 0 1.049957 4.199829q-6.591398 0.58331-13.066135 1.749929h-0.816633z" fill="#4A9E56" p-id="551"></path><path d="M612.095927 593.75084m-5.191455 0a5.191455 5.191455 0 1 0 10.382911 0 5.191455 5.191455 0 1 0-10.382911 0Z" fill="#D75C44" p-id="552"></path><path d="M461.135403 567.501908l-11.316206 0.641641-54.422786 162.86004 33.248647-18.257591 5.833096-22.165764 27.29889-14.991057 2.041583 16.857647 23.857363-13.35779z m-20.765822 101.670863l12.949473-53.431159 5.833096 43.74822z" fill="#D75C44" p-id="553"></path><path d="M529.149302 585.351182s-9.216292-4.316491-36.748505 0l2.041584 90.354657 32.84033-17.499288a28.58217 28.58217 0 0 0 13.766107-16.565993c3.908174-12.541156 10.441242-48.881344-11.899516-56.289376z m0.874965 48.239704c-1.283281 5.833096-9.916263 10.849559-9.916264 10.849558L507.508516 650.740188l-0.874964-49.931302a34.998576 34.998576 0 0 1 17.907604-1.399943c10.32458 3.091541 6.70806 28.115523 5.483111 34.181943z" fill="#4A9E56" p-id="554"></path></svg>